<?xml version="1.0" encoding="UTF-8" standalone="no"?>
<!-- Created with Inkscape (http://www.inkscape.org/) -->

<svg
   xmlns:dc="http://purl.org/dc/elements/1.1/"
   xmlns:cc="http://creativecommons.org/ns#"
   xmlns:rdf="http://www.w3.org/1999/02/22-rdf-syntax-ns#"
   xmlns:svg="http://www.w3.org/2000/svg"
   xmlns="http://www.w3.org/2000/svg"
   xmlns:sodipodi="http://sodipodi.sourceforge.net/DTD/sodipodi-0.dtd"
   xmlns:inkscape="http://www.inkscape.org/namespaces/inkscape"
   width="190.07533mm"
   height="77.540222mm"
   viewBox="0 0 190.07533 77.540222"
   version="1.1"
   id="svg8"
   inkscape:version="0.92.2 (5c3e80d, 2017-08-06)"
   sodipodi:docname="描画.svg">
  <defs
     id="defs2" />
  <sodipodi:namedview
     id="base"
     pagecolor="#ffffff"
     bordercolor="#666666"
     borderopacity="1.0"
     inkscape:pageopacity="0.0"
     inkscape:pageshadow="2"
     inkscape:zoom="0.7"
     inkscape:cx="275.39754"
     inkscape:cy="194.67651"
     inkscape:document-units="mm"
     inkscape:current-layer="layer1-3"
     showgrid="false"
     fit-margin-top="0"
     fit-margin-left="0"
     fit-margin-right="0"
     fit-margin-bottom="0"
     inkscape:window-width="1920"
     inkscape:window-height="1017"
     inkscape:window-x="-8"
     inkscape:window-y="-8"
     inkscape:window-maximized="1" />
  <metadata
     id="metadata5">
    <rdf:RDF>
      <cc:Work
         rdf:about="">
        <dc:format>image/svg+xml</dc:format>
        <dc:type
           rdf:resource="http://purl.org/dc/dcmitype/StillImage" />
        <dc:title></dc:title>
      </cc:Work>
    </rdf:RDF>
  </metadata>
  <g
     inkscape:label="レイヤー 1"
     inkscape:groupmode="layer"
     id="layer1"
     transform="translate(-7.8976272,-16.057855)">
    <g
       id="layer1-3"
       inkscape:label="レイヤー 1"
       transform="translate(7.2954798,14.683345)">
      <g
         transform="translate(-1.7490538,-146.77277)"
         id="g199">
        <g
           id="layer101"
           transform="matrix(0.01110195,0,0,0.01110195,59.203139,174.96116)"
           style="fill:#000000;stroke:none">
          <path
             id="path36"
             d="m 8200,2405 v -175 h 230 230 v 175 175 h -230 -230 z"
             inkscape:connector-curvature="0"
             style="fill:#ffffff" />
          <path
             id="path38"
             d="M 487,2486 C 360,2433 295,2352 271,2216 264,2178 260,1927 260,1538 V 920 H 165 70 V 775 630 h 95 95 V 315 0 H 420 580 V 315 630 H 780 980 V 775 920 H 780 580 v 655 655 h 225 225 v 140 140 H 788 c -233,0 -245,-1 -301,-24 z"
             inkscape:connector-curvature="0"
             style="fill:#ffffff" />
          <path
             id="path40"
             d="m 1240,2365 v -145 h 500 500 V 1915 1610 H 1750 1260 V 1120 630 h 650 650 v 145 145 h -490 -490 v 185 185 h 490 490 v 448 c -1,483 -4,521 -54,607 -35,59 -103,115 -174,142 -56,22 -66,22 -574,22 l -518,1 z"
             inkscape:connector-curvature="0"
             style="fill:#ffffff" />
          <path
             id="path42"
             d="M 2980,1570 V 630 h 140 140 v 790 790 h 370 370 V 1420 630 h 150 151 l -3,813 -3,812 -28,56 c -45,92 -117,155 -212,184 -42,12 -134,15 -562,15 h -513 z"
             inkscape:connector-curvature="0"
             style="fill:#ffffff" />
          <path
             id="path44"
             d="M 4720,1570 V 630 h 489 c 547,0 595,4 680,61 25,18 51,39 57,48 7,9 22,27 34,41 57,66 55,23 58,913 l 3,817 H 5895 5750 V 1720 930 h -370 -370 v 790 790 h -145 -145 z"
             inkscape:connector-curvature="0"
             style="fill:#ffffff" />
          <path
             id="path46"
             d="M 6460,1570 V 630 h 660 660 v 813 813 l -30,59 c -49,97 -112,150 -215,182 -30,10 -169,13 -557,13 h -518 z m 1030,0 V 930 h -370 -370 v 640 640 h 370 370 z"
             inkscape:connector-curvature="0"
             style="fill:#ffffff" />
          <path
             id="path48"
             d="m 9310,2491 c -94,-36 -158,-94 -198,-179 l -27,-57 -3,-812 -3,-813 h 631 630 v 145 145 h -470 -470 v 655 655 h 470 470 v 140 140 l -492,-1 c -440,-1 -498,-3 -538,-18 z"
             inkscape:connector-curvature="0"
             style="fill:#ffffff" />
          <path
             id="path50"
             d="M 10680,1570 V 630 h 660 660 v 812 813 l -30,61 c -36,71 -78,117 -134,147 -88,46 -94,47 -638,47 h -518 z m 1030,0 V 930 h -370 -370 v 640 640 h 370 370 z"
             inkscape:connector-curvature="0"
             style="fill:#ffffff" />
        </g>
        <g
           id="g144"
           transform="translate(2.3512009,148.14728)">
          <g
             transform="translate(-20.157717,-17.576458)"
             style="display:inline;opacity:1"
             inkscape:label="レイヤー 3"
             id="layer3">
            <path
               inkscape:connector-curvature="0"
               id="path64"
               transform="scale(0.26458333)"
               d="m 146.22266,89.539062 c -3.13053,-0.03031 -6.22158,0.207333 -8.00586,0.722657 -3.14808,0.909199 -8.98233,3.721437 -11.66797,5.625 -14.14902,10.028741 -26.05207,30.845951 -32.242189,56.382811 -4.108823,16.95063 -3.778097,34.0349 0.947265,48.75 1.75979,5.48012 3.47075,9.67757 7.445314,18.2793 5.39566,11.67722 7.13447,16.38761 8.61719,23.32812 0.91262,4.27143 0.89644,15.81806 -0.0293,20.88867 -1.57628,8.63387 -4.64898,17.59799 -7.77149,22.67188 -3.27719,5.32525 -8.078046,9.1611 -12.939448,10.33789 -2.783429,0.67375 -7.520261,0.54513 -11.082031,-0.30078 -1.743738,-0.41415 -3.227547,-0.69437 -3.298829,-0.62305 -0.222032,0.22204 3.877419,2.95135 6.146485,4.0918 2.265706,1.13874 5.147459,2.07747 7.957031,2.5918 2.821485,0.51651 12.678922,0.12066 17.310552,-0.69532 5.20104,-0.91629 8.66,-2.04166 13.28515,-4.32031 7.66506,-3.77632 15.23221,-9.42778 23.77735,-17.75781 l 5.20898,-5.07813 44.25781,-0.11718 c 43.63449,-0.11526 44.29995,-0.12782 47.29297,-0.8711 12.16912,-3.02205 19.70784,-8.50323 24.32422,-17.68359 2.99624,-5.95847 4.90117,-15.5224 5.2168,-26.18945 0.39595,-13.38212 -1.76997,-24.65777 -6.57813,-34.23438 -4.37195,-8.70778 -9.56293,-13.73861 -18.8457,-18.26562 -16.88322,-8.23361 -36.34578,-9.2373 -49.28516,-2.54297 -5.21794,2.69956 -10.72493,7.63521 -12.56055,11.25781 -0.85668,1.69071 -1.02148,2.45481 -1.02148,4.71484 0,2.39064 0.15021,3.00155 1.32227,5.37305 1.33104,2.69318 2.51748,4.39447 7.49609,10.74219 3.45691,4.40755 4.71284,6.95767 4.71484,9.58008 0.002,2.33418 -0.65897,3.72674 -2.6914,5.67968 -1.67979,1.6141 -4.23535,3.05051 -8.3418,4.68555 -2.50673,0.99817 -3.16642,1.11872 -5.38086,0.98047 -5.48007,-0.34215 -8.57237,-3.55635 -10.39648,-10.80859 -0.50813,-2.02023 -0.6262,-4.00816 -0.61524,-10.35743 0.0184,-10.83385 0.99151,-17.96782 6.17188,-45.17968 4.34512,-22.82452 4.15089,-21.41369 4.13086,-29.82032 -0.0152,-6.36786 -0.13823,-8.05469 -0.8125,-11.16992 -3.59312,-16.60079 -11.2966,-26.238218 -23.8125,-29.789061 -1.94363,-0.551422 -5.11362,-0.848596 -8.24414,-0.878907 z m -7.875,21.166018 h 8.08203 v 17.9375 h 17.14258 v 8.08203 h -17.14258 v 17.41797 h -8.08203 v -17.41797 h -18.21289 v -8.08203 h 18.21289 z"
               style="display:inline;fill:#ffffff;stroke-width:0.35714287" />
            <path
               inkscape:connector-curvature="0"
               id="path103"
               d="m 25.769072,28.196296 c -1.361974,-1.38293 -2.015224,-2.248394 -2.594401,-3.43722 -0.794118,-1.630017 -1.137054,-3.267434 -1.321021,-6.307478 -0.02595,-0.428767 -0.04727,-0.820512 -0.0474,-0.870546 -1.21e-4,-0.05003 0.2423,0.314386 0.538713,0.809823 1.228987,2.05418 2.319782,3.500968 3.48326,4.620061 0.688502,0.662237 1.145564,1.018583 2.285286,1.781707 0.545703,0.365388 1.009298,0.679631 1.030214,0.698318 0.0209,0.01869 -0.193837,0.340034 -0.477224,0.714104 -0.645821,0.852477 -1.43714,1.99249 -1.731124,2.493947 -0.12355,0.21074 -0.240207,0.383167 -0.259241,0.383167 -0.01902,0 -0.427215,-0.398648 -0.907066,-0.885883 z"
               style="fill:#ffffff;stroke-width:0.04724703" />
            <path
               sodipodi:nodetypes="csccscccccscc"
               inkscape:connector-curvature="0"
               id="path103-6"
               d="m 50.955606,29.332436 c 1.625423,-1.266118 2.419992,-2.075 3.155657,-3.212504 1.008681,-1.559649 1.513355,-3.164118 1.944053,-6.180561 0.06075,-0.425438 0.113584,-0.814339 0.117426,-0.864226 0.0038,-0.04988 -0.294227,0.293417 -0.662367,0.762899 -1.526379,1.946562 -2.853272,3.298865 -4.237194,4.31834 -0.818951,0.603288 -1.356451,0.920728 -2.687466,1.587182 -0.637294,0.319102 -0.734719,0.363162 -0.759493,0.380062 -0.02476,0.0169 0.358809,0.816014 0.651716,1.388725 0.487587,1.071068 0.573931,1.392881 0.82055,1.847015 0.118471,0.303863 0.388505,0.926787 0.409791,0.928366 0.02127,0.0016 0.674659,-0.509219 1.247329,-0.955298 z"
               style="display:inline;fill:#ffffff;stroke-width:0.05003204" />
            <path
               sodipodi:nodetypes="ccccccccccccc"
               inkscape:connector-curvature="0"
               id="path279"
               d="m 62.243465,76.210334 v 8.537044 l -20.411909,-0.0039 v 2.760708 h 20.411909 v 7.612493 h 2.985216 c 0.08647,-2.64369 0.09051,-5.438528 0.09899,-7.612493 h 41.742539 c 2.59457,-0.90827 5.20158,-1.781453 7.79301,-2.698597 -19.291352,-0.06405 -30.620074,-0.05449 -49.527785,-0.05823 0.0073,-2.7732 0.0033,-5.680772 0.0033,-8.537045 -1.03176,4e-6 -2.06352,-3e-6 -3.09528,-6e-6 z"
               style="fill:#ffffff;stroke-width:0.0836556" />
            <circle
               r="1.9371281"
               cy="78.719688"
               cx="54.256073"
               id="circle568"
               style="display:inline;fill:#ffffff;stroke-width:0.22138605" />
            <circle
               style="display:inline;fill:#ffffff;stroke-width:0.22138605"
               id="circle570"
               cx="44.995655"
               cy="78.719688"
               r="1.9371281" />
          </g>
        </g>
      </g>
    </g>
  </g>
</svg>
